<svg xmlns="http://www.w3.org/2000/svg" xmlns:xlink="http://www.w3.org/1999/xlink" width="500" zoomAndPan="magnify" viewBox="0 0 375 374.999991" height="500" preserveAspectRatio="xMidYMid meet" version="1.0"><defs><g/><clipPath id="a6943d4dcf"><path d="M 116.496094 96 L 258.246094 96 L 258.246094 173.972656 L 116.496094 173.972656 Z M 116.496094 96 " clip-rule="nonzero"/></clipPath><clipPath id="0f9d7862bf"><path d="M 141 96 L 234 96 L 234 173.972656 L 141 173.972656 Z M 141 96 " clip-rule="nonzero"/></clipPath></defs><path fill="#2036b3" d="M 209.324219 145.722656 C 210.308594 144.011719 210.398438 141.820312 209.324219 139.957031 L 204.324219 131.28125 L 199.328125 139.957031 C 198.25 141.789062 198.339844 144.011719 199.328125 145.722656 C 199.804688 146.5625 200.523438 147.3125 201.453125 147.824219 C 202.351562 148.332031 203.335938 148.605469 204.324219 148.574219 C 205.3125 148.574219 206.300781 148.332031 207.199219 147.824219 C 208.125 147.3125 208.84375 146.59375 209.324219 145.722656 Z M 165.421875 123.445312 C 164.433594 125.15625 164.34375 127.347656 165.421875 129.207031 L 170.417969 137.886719 L 175.417969 129.207031 C 176.464844 127.378906 176.402344 125.15625 175.417969 123.445312 C 174.9375 122.605469 174.21875 121.851562 173.292969 121.34375 C 172.394531 120.832031 171.40625 120.5625 170.417969 120.59375 C 169.429688 120.59375 168.445312 120.832031 167.546875 121.34375 C 166.617188 121.851562 165.898438 122.574219 165.421875 123.445312 Z M 165.421875 123.445312 " fill-opacity="1" fill-rule="evenodd"/><g clip-path="url(#a6943d4dcf)"><path fill="#2f81ff" d="M 201.363281 136.503906 L 204.355469 131.308594 L 200.316406 124.285156 L 200.316406 124.253906 L 190.949219 108.011719 C 188.851562 104.378906 185.921875 101.347656 182.300781 99.246094 L 181.96875 99.066406 C 178.4375 97.085938 174.457031 96.09375 170.390625 96.09375 C 166.320312 96.09375 162.339844 97.085938 158.777344 99.066406 L 158.507812 99.214844 C 154.828125 101.347656 151.925781 104.378906 149.828125 108.011719 L 140.460938 124.253906 L 140.460938 124.285156 L 127.234375 147.28125 C 125.648438 150.042969 126.605469 153.558594 129.359375 155.148438 C 132.113281 156.738281 135.613281 155.777344 137.199219 153.015625 L 150.578125 129.777344 L 159.765625 113.808594 C 160.84375 111.914062 162.339844 110.324219 164.222656 109.242188 L 164.433594 109.125 C 166.230469 108.132812 168.292969 107.683594 170.359375 107.683594 C 172.453125 107.683594 174.488281 108.132812 176.3125 109.125 L 176.492188 109.214844 C 178.410156 110.324219 179.90625 111.914062 180.984375 113.808594 L 190.171875 129.777344 L 199.207031 145.453125 C 198.371094 143.769531 198.339844 141.726562 199.355469 139.988281 Z M 173.382812 132.660156 L 175.386719 129.179688 C 176.402344 127.4375 176.375 125.367188 175.535156 123.714844 L 184.574219 139.386719 L 193.761719 155.359375 C 194.839844 157.25 196.335938 158.839844 198.25 159.953125 L 198.429688 160.042969 C 200.253906 161.0625 202.289062 161.484375 204.386719 161.484375 C 206.480469 161.484375 208.515625 161.03125 210.308594 160.042969 L 210.519531 159.921875 C 212.40625 158.839844 213.902344 157.25 214.980469 155.359375 L 224.167969 139.386719 L 237.542969 116.148438 C 239.128906 113.386719 242.628906 112.425781 245.382812 114.015625 C 248.136719 115.609375 249.09375 119.121094 247.507812 121.882812 L 234.28125 144.878906 L 234.28125 144.910156 L 224.945312 161.152344 C 222.847656 164.785156 219.917969 167.816406 216.265625 169.949219 L 215.996094 170.101562 C 212.433594 172.113281 208.453125 173.070312 204.386719 173.070312 C 200.316406 173.070312 196.335938 172.082031 192.804688 170.101562 L 192.472656 169.917969 C 188.851562 167.816406 185.921875 164.785156 183.824219 161.152344 L 174.488281 144.910156 L 174.488281 144.878906 L 170.449219 137.855469 Z M 246.699219 101.859375 C 246.699219 105.011719 249.246094 107.5625 252.386719 107.5625 C 255.527344 107.5625 258.074219 105.011719 258.074219 101.859375 C 258.074219 98.707031 255.527344 96.152344 252.386719 96.152344 C 249.246094 96.125 246.699219 98.707031 246.699219 101.859375 Z M 128.042969 167.308594 C 128.042969 164.15625 125.5 161.601562 122.355469 161.601562 C 119.214844 161.601562 116.671875 164.15625 116.671875 167.308594 C 116.671875 170.460938 119.214844 173.011719 122.355469 173.011719 C 125.5 173.011719 128.042969 170.460938 128.042969 167.308594 Z M 128.042969 167.308594 " fill-opacity="1" fill-rule="evenodd"/></g><g clip-path="url(#0f9d7862bf)"><path fill="#fe4eee" d="M 170.390625 137.855469 L 165.390625 129.179688 C 164.3125 127.347656 164.402344 125.125 165.390625 123.414062 L 149.171875 151.574219 L 141.777344 164.484375 C 140.191406 167.246094 141.121094 170.789062 143.875 172.382812 C 146.628906 173.972656 150.160156 173.042969 151.746094 170.28125 L 159.105469 157.519531 Z M 204.355469 131.308594 L 209.351562 139.988281 C 210.429688 141.820312 210.339844 144.039062 209.351562 145.75 L 225.574219 117.589844 L 232.996094 104.710938 C 234.582031 101.949219 233.652344 98.40625 230.898438 96.8125 C 228.144531 95.222656 224.613281 96.152344 223.027344 98.914062 L 215.667969 111.675781 Z M 204.355469 131.308594 " fill-opacity="1" fill-rule="evenodd"/></g><g fill="#2f81ff" fill-opacity="1"><g transform="translate(104.227064, 213.099705)"><g><path d="M 7.90625 -4.796875 L 17.03125 -4.796875 L 17.03125 0 L 2.71875 0 L 2.71875 -23.84375 L 7.90625 -23.84375 Z M 7.90625 -4.796875 "/></g></g></g><g fill="#2f81ff" fill-opacity="1"><g transform="translate(122.003673, 213.099705)"><g><path d="M 2.71875 0 L 2.71875 -23.84375 L 7.90625 -23.84375 L 7.90625 0 Z M 2.71875 0 "/></g></g></g><g fill="#2f81ff" fill-opacity="1"><g transform="translate(132.62878, 213.099705)"><g><path d="M 17.84375 -23.84375 L 22.890625 -23.84375 L 22.890625 0 L 18.59375 0 L 7.796875 -14.890625 L 7.796875 0 L 2.71875 0 L 2.71875 -23.84375 L 7.390625 -23.84375 L 17.84375 -9.296875 Z M 17.84375 -23.84375 "/></g></g></g><g fill="#2f81ff" fill-opacity="1"><g transform="translate(158.238001, 213.099705)"><g><path d="M 22.625 0 L 16.3125 0 L 7.90625 -11.65625 L 7.90625 0 L 2.71875 0 L 2.71875 -23.84375 L 7.90625 -23.84375 L 7.90625 -12.84375 L 15.703125 -23.84375 L 21.734375 -23.84375 L 13.59375 -12.4375 Z M 22.625 0 "/></g></g></g><g fill="#2f81ff" fill-opacity="1"><g transform="translate(180.577959, 213.099705)"><g><path d="M 10.625 0.484375 C 8.8125 0.484375 7.210938 0.15625 5.828125 -0.5 C 4.441406 -1.164062 3.351562 -2.109375 2.5625 -3.328125 C 1.78125 -4.554688 1.390625 -6.023438 1.390625 -7.734375 L 6.609375 -7.734375 C 6.609375 -6.578125 7.007812 -5.71875 7.8125 -5.15625 C 8.625 -4.601562 9.550781 -4.328125 10.59375 -4.328125 C 11.25 -4.328125 11.863281 -4.429688 12.4375 -4.640625 C 13.019531 -4.859375 13.5 -5.175781 13.875 -5.59375 C 14.25 -6.019531 14.4375 -6.53125 14.4375 -7.125 C 14.4375 -7.726562 14.21875 -8.207031 13.78125 -8.5625 C 13.351562 -8.914062 12.773438 -9.207031 12.046875 -9.4375 C 11.328125 -9.664062 10.535156 -9.878906 9.671875 -10.078125 C 8.785156 -10.285156 7.875 -10.535156 6.9375 -10.828125 C 6.007812 -11.128906 5.148438 -11.519531 4.359375 -12 C 3.566406 -12.488281 2.929688 -13.144531 2.453125 -13.96875 C 1.972656 -14.800781 1.734375 -15.859375 1.734375 -17.140625 C 1.734375 -19.429688 2.507812 -21.191406 4.0625 -22.421875 C 5.625 -23.660156 7.734375 -24.28125 10.390625 -24.28125 C 13.109375 -24.28125 15.21875 -23.59375 16.71875 -22.21875 C 18.21875 -20.851562 18.96875 -18.988281 18.96875 -16.625 L 13.859375 -16.625 C 13.859375 -17.644531 13.492188 -18.398438 12.765625 -18.890625 C 12.046875 -19.378906 11.207031 -19.625 10.25 -19.625 C 9.414062 -19.625 8.644531 -19.441406 7.9375 -19.078125 C 7.226562 -18.710938 6.875 -18.144531 6.875 -17.375 C 6.875 -16.800781 7.082031 -16.347656 7.5 -16.015625 C 7.925781 -15.691406 8.484375 -15.421875 9.171875 -15.203125 C 9.867188 -14.992188 10.640625 -14.785156 11.484375 -14.578125 C 12.390625 -14.347656 13.316406 -14.078125 14.265625 -13.765625 C 15.222656 -13.460938 16.109375 -13.050781 16.921875 -12.53125 C 17.742188 -12.007812 18.410156 -11.316406 18.921875 -10.453125 C 19.429688 -9.585938 19.6875 -8.5 19.6875 -7.1875 C 19.6875 -5.457031 19.269531 -4.023438 18.4375 -2.890625 C 17.613281 -1.753906 16.519531 -0.90625 15.15625 -0.34375 C 13.789062 0.207031 12.28125 0.484375 10.625 0.484375 Z M 10.625 0.484375 "/></g></g></g><g fill="#2f81ff" fill-opacity="1"><g transform="translate(201.657891, 213.099705)"><g><path d="M 19.171875 -23.84375 L 19.171875 -19.046875 L 12.53125 -19.046875 L 12.53125 0 L 7.359375 0 L 7.359375 -19.046875 L 0.75 -19.046875 L 0.75 -23.84375 Z M 19.171875 -23.84375 "/></g></g></g><g fill="#2f81ff" fill-opacity="1"><g transform="translate(221.545908, 213.099705)"><g><path d="M 14.03125 0.515625 C 12.21875 0.515625 10.535156 0.203125 8.984375 -0.421875 C 7.441406 -1.046875 6.097656 -1.921875 4.953125 -3.046875 C 3.804688 -4.171875 2.914062 -5.488281 2.28125 -7 C 1.644531 -8.507812 1.328125 -10.148438 1.328125 -11.921875 C 1.328125 -13.691406 1.644531 -15.332031 2.28125 -16.84375 C 2.914062 -18.351562 3.804688 -19.671875 4.953125 -20.796875 C 6.097656 -21.921875 7.441406 -22.796875 8.984375 -23.421875 C 10.535156 -24.046875 12.21875 -24.359375 14.03125 -24.359375 C 15.851562 -24.359375 17.535156 -24.046875 19.078125 -23.421875 C 20.617188 -22.796875 21.957031 -21.921875 23.09375 -20.796875 C 24.226562 -19.671875 25.113281 -18.351562 25.75 -16.84375 C 26.382812 -15.332031 26.703125 -13.691406 26.703125 -11.921875 C 26.703125 -10.148438 26.382812 -8.507812 25.75 -7 C 25.113281 -5.488281 24.226562 -4.171875 23.09375 -3.046875 C 21.957031 -1.921875 20.617188 -1.046875 19.078125 -0.421875 C 17.535156 0.203125 15.851562 0.515625 14.03125 0.515625 Z M 14.03125 -4.359375 C 15.457031 -4.359375 16.734375 -4.6875 17.859375 -5.34375 C 18.984375 -6 19.867188 -6.894531 20.515625 -8.03125 C 21.171875 -9.164062 21.5 -10.460938 21.5 -11.921875 C 21.5 -13.347656 21.171875 -14.632812 20.515625 -15.78125 C 19.867188 -16.9375 18.984375 -17.84375 17.859375 -18.5 C 16.734375 -19.15625 15.457031 -19.484375 14.03125 -19.484375 C 12.625 -19.484375 11.351562 -19.15625 10.21875 -18.5 C 9.082031 -17.84375 8.1875 -16.9375 7.53125 -15.78125 C 6.875 -14.632812 6.546875 -13.347656 6.546875 -11.921875 C 6.546875 -10.492188 6.875 -9.203125 7.53125 -8.046875 C 8.1875 -6.898438 9.082031 -6 10.21875 -5.34375 C 11.351562 -4.6875 12.625 -4.359375 14.03125 -4.359375 Z M 14.03125 -4.359375 "/></g></g></g><g fill="#2f81ff" fill-opacity="1"><g transform="translate(249.573019, 213.099705)"><g><path d="M 11.890625 -23.84375 C 13.503906 -23.84375 14.941406 -23.484375 16.203125 -22.765625 C 17.460938 -22.054688 18.460938 -21.082031 19.203125 -19.84375 C 19.953125 -18.601562 20.328125 -17.203125 20.328125 -15.640625 C 20.328125 -14.066406 19.957031 -12.660156 19.21875 -11.421875 C 18.488281 -10.191406 17.488281 -9.222656 16.21875 -8.515625 C 14.945312 -7.804688 13.503906 -7.453125 11.890625 -7.453125 L 7.90625 -7.453125 L 7.90625 0 L 2.71875 0 L 2.71875 -23.84375 Z M 11.6875 -12.234375 C 12.707031 -12.234375 13.53125 -12.554688 14.15625 -13.203125 C 14.78125 -13.847656 15.09375 -14.660156 15.09375 -15.640625 C 15.09375 -16.640625 14.78125 -17.460938 14.15625 -18.109375 C 13.53125 -18.753906 12.707031 -19.078125 11.6875 -19.078125 L 7.90625 -19.078125 L 7.90625 -12.234375 Z M 11.6875 -12.234375 "/></g></g></g></svg>